<svg version="1.2" xmlns="http://www.w3.org/2000/svg" viewBox="0 0 576 512" width="576" height="512">
	<title>favicon-svg</title>
	<style>
		.s0 { fill: #ffffff } 
	</style>
	<path fill-rule="evenodd" class="s0" d="m180.5 141.5c39.2-33 92.1-61.5 155.5-61.5 63.4 0 116.3 28.5 155.5 61.5 39.1 33 66.9 72.4 81 99.8 4.7 9.2 4.7 20.1 0 29.3-14.1 27.4-41.9 66.8-81 99.8-39.2 33.1-92.1 61.6-155.5 61.6-63.4 0-116.3-28.5-155.5-61.5-16.2-13.7-30.5-28.5-42.7-43.1l-89.7 52.2c-12.5 7.3-28.4 5.3-38.7-4.9-10.3-10.2-12.4-26-5.2-38.6l45.8-80.1-45.8-80.1c-7.2-12.6-5-28.4 5.3-38.6 10.3-10.2 26.1-12.2 38.7-4.9l89.7 52.3c12.2-14.6 26.5-29.4 42.7-43.1zm267.5 114.5c0-8.5-3.4-16.6-9.4-22.6-6-6-14.1-9.4-22.6-9.4-8.5 0-16.6 3.4-22.6 9.4-6 6-9.4 14.1-9.4 22.6 0 8.5 3.4 16.6 9.4 22.6 6 6 14.1 9.4 22.6 9.4 8.5 0 16.6-3.4 22.6-9.4 6-6 9.4-14.1 9.4-22.6z"/>
</svg>